<?xml version="1.0" standalone="no"?>
<!DOCTYPE svg PUBLIC "-//W3C//DTD SVG 20010904//EN"
 "http://www.w3.org/TR/2001/REC-SVG-20010904/DTD/svg10.dtd">
<svg version="1.0" xmlns="http://www.w3.org/2000/svg"
 width="801.000000pt" height="801.000000pt" viewBox="0 0 801.000000 801.000000"
 preserveAspectRatio="xMidYMid meet">
<metadata>
Created by potrace 1.14, written by Peter Selinger 2001-2017
</metadata>
<g transform="translate(0.000000,801.000000) scale(0.100000,-0.100000)"
fill="#000000" stroke="none">
<path d="M2684 6245 c8 -8 19 -15 25 -15 14 0 15 -30 1 -31 -5 -1 -15 -2 -22
-3 -13 -1 -38 -42 -38 -62 0 -6 7 -17 15 -24 26 -22 19 -43 -12 -35 -23 5 -25
4 -13 -10 9 -11 10 -19 2 -27 -6 -6 -8 -17 -5 -24 3 -9 -3 -14 -18 -15 l-24 0
22 -9 c15 -6 21 -15 17 -25 -3 -8 -1 -15 5 -15 6 0 11 17 11 40 0 22 5 40 10
40 6 0 10 -12 10 -26 0 -19 4 -25 15 -20 11 4 15 -1 15 -19 0 -21 -5 -25 -30
-25 -29 0 -30 -2 -30 -44 0 -24 -3 -52 -7 -62 -4 -12 -3 -15 5 -10 8 5 12 -1
12 -18 0 -14 5 -28 10 -31 6 -3 10 -37 10 -76 0 -67 -1 -69 -25 -69 -36 0 -31
-13 15 -39 31 -17 38 -26 31 -35 -16 -19 -9 -21 69 -18 l71 4 -3 66 c-5 114
11 240 37 286 45 83 39 247 -12 294 -31 29 -127 72 -160 72 -22 0 -23 -2 -9
-15z m36 -153 c0 -4 -6 -14 -12 -21 -10 -11 -10 -13 0 -7 7 4 12 1 12 -8 0
-22 -11 -46 -22 -46 -5 0 -6 5 -3 10 4 6 2 17 -5 25 -8 10 -8 19 0 34 10 21
30 29 30 13z m-50 -166 c0 -3 -4 -8 -10 -11 -5 -3 -10 -1 -10 4 0 6 5 11 10
11 6 0 10 -2 10 -4z"/>
<path d="M2630 6179 c0 -11 4 -18 10 -14 5 3 7 12 3 20 -7 21 -13 19 -13 -6z"/>
<path d="M2953 5123 c9 -9 20 -13 24 -9 4 4 1 11 -7 16 -25 16 -35 11 -17 -7z"/>
<path d="M3092 4752 c-34 -31 -41 -52 -17 -52 8 0 15 4 15 10 0 5 7 7 15 4 8
-4 15 -13 15 -22 0 -8 3 -12 7 -9 14 15 30 -27 22 -61 -8 -38 5 -77 22 -66 18
10 59 -37 59 -68 0 -15 -4 -28 -10 -28 -5 0 -10 11 -10 24 0 50 -49 45 -73 -7
-15 -31 -13 -87 3 -87 4 0 11 -11 14 -25 9 -34 32 -22 40 21 7 35 19 43 32 22
4 -7 3 -10 -1 -5 -5 4 -15 -11 -22 -33 -13 -36 -12 -42 5 -60 20 -22 21 -84 1
-162 -9 -36 -12 -38 -48 -38 -21 0 -69 -6 -107 -14 -145 -29 -192 -36 -260
-36 -41 0 -75 -5 -82 -12 -9 -9 -12 -9 -12 1 0 11 -3 11 -15 1 -12 -10 -15
-10 -15 1 0 11 -2 11 -8 1 -5 -8 -16 -10 -27 -6 -12 5 -16 4 -12 -3 15 -25
-142 -31 -183 -8 -14 8 -52 14 -87 15 l-63 0 10 -25 c9 -24 8 -25 -12 -14 -19
10 -20 9 -13 -7 5 -11 9 -41 10 -68 1 -34 6 -51 18 -58 10 -5 17 -21 17 -38 0
-15 5 -30 11 -32 7 -2 12 -18 13 -35 1 -25 5 -30 25 -30 13 0 27 -7 32 -14 5
-8 9 -10 9 -5 0 5 7 3 15 -4 11 -9 15 -9 15 -1 0 7 5 9 13 4 13 -8 18 -9 55
-11 38 -3 24 -19 -14 -17 -50 3 -106 -11 -119 -28 -5 -8 -21 -14 -35 -13 -21
1 -26 -5 -34 -36 -8 -33 -12 -36 -42 -35 -32 2 -34 5 -55 72 -11 39 -22 75
-24 80 -8 32 -16 -138 -19 -395 -3 -318 5 -538 29 -775 8 -82 21 -226 30 -320
8 -93 18 -192 21 -220 3 -27 7 -83 8 -123 2 -39 5 -75 9 -78 3 -3 6 -128 6
-276 1 -149 4 -281 7 -294 4 -17 13 -24 30 -24 29 0 39 -32 30 -93 -4 -23 -4
-38 0 -34 12 12 45 -36 40 -58 -8 -33 -9 -239 -1 -257 4 -11 3 -18 -4 -18 -6
0 -11 -9 -11 -21 0 -13 5 -19 13 -15 6 3 20 9 30 12 15 5 17 20 17 104 0 53 3
158 7 233 l6 137 32 0 32 0 6 102 c11 195 37 543 47 643 6 55 11 118 11 140 2
51 15 178 39 380 10 88 24 234 29 325 6 91 15 192 21 225 9 55 12 112 7 138
-4 18 45 38 61 24 35 -29 46 -97 61 -372 12 -212 19 -264 33 -244 6 9 7 -7 3
-46 -15 -124 -22 -340 -12 -359 6 -13 6 -16 -2 -12 -13 9 -15 -6 -1 -20 5 -5
14 -79 20 -164 6 -85 15 -171 21 -190 5 -19 14 -91 19 -160 13 -172 31 -360
36 -387 2 -13 11 -23 19 -23 10 0 15 -11 15 -32 0 -65 12 -106 31 -111 17 -5
19 -16 20 -99 1 -148 10 -252 22 -260 7 -4 22 -8 35 -8 18 0 22 4 18 18 -6 19
-26 338 -26 424 l0 56 38 9 37 9 8 114 c26 379 83 1003 98 1070 6 27 8 90 4
157 -5 69 -3 137 3 175 6 35 14 253 16 488 3 234 10 443 15 465 11 44 45 302
65 493 18 168 6 291 -54 544 -11 45 -13 47 -43 44 -17 -2 -39 -13 -48 -25
l-18 -21 -3 22 c-5 32 -20 32 -56 0z m145 -74 c-3 -7 -5 -2 -5 12 0 14 2 19 5
13 2 -7 2 -19 0 -25z m3 -334 c0 -8 -4 -12 -10 -9 -5 3 -10 13 -10 21 0 8 5
12 10 9 6 -3 10 -13 10 -21z m-645 -373 c3 -5 1 -12 -5 -16 -5 -3 -10 1 -10 9
0 18 6 21 15 7z m607 -88 c2 -22 7 -39 12 -36 11 7 -2 -50 -14 -57 -4 -3 -11
-20 -15 -37 -3 -18 -11 -33 -16 -33 -6 0 -9 -8 -8 -17 1 -10 1 -26 0 -35 -1
-17 -2 -17 -21 -1 -21 18 -27 58 -10 68 13 8 13 62 0 70 -6 4 -7 11 -4 17 4 6
9 5 15 -3 10 -16 28 27 36 84 7 47 21 36 25 -20z m25 0 c-3 -10 -5 -4 -5 12 0
17 2 24 5 18 2 -7 2 -21 0 -30z m-201 -162 c17 14 54 2 54 -17 0 -8 -4 -12
-10 -9 -5 3 -10 2 -10 -4 0 -6 -13 -8 -32 -4 -40 7 -53 17 -43 33 5 8 10 9 18
1 7 -7 14 -7 23 0z m-411 -11 c3 -5 -1 -10 -10 -10 -9 0 -13 5 -10 10 3 6 8
10 10 10 2 0 7 -4 10 -10z m345 0 c0 -5 -10 -10 -22 -10 -19 0 -20 2 -8 10 19
13 30 13 30 0z m-390 -10 c0 -5 -4 -10 -10 -10 -5 0 -10 5 -10 10 0 6 5 10 10
10 6 0 10 -4 10 -10z m617 -32 c-3 -8 -6 -5 -6 6 -1 11 2 17 5 13 3 -3 4 -12
1 -19z m-867 -329 c0 -14 -17 -10 -23 5 -4 10 -1 13 9 9 7 -3 14 -9 14 -14z
m7 -63 c-3 -8 -1 -16 5 -18 7 -3 8 -10 3 -18 -6 -10 -10 -8 -17 9 -4 13 -6 27
-2 32 8 14 17 10 11 -5z m-110 -168 c-3 -8 -6 -5 -6 6 -1 11 2 17 5 13 3 -3 4
-12 1 -19z m102 -173 l0 -20 -9 20 c-5 11 -9 27 -9 35 -1 13 0 13 9 0 5 -8 9
-24 9 -35z m598 -7 c-3 -8 -6 -5 -6 6 -1 11 2 17 5 13 3 -3 4 -12 1 -19z
m-590 -70 c-3 -7 -5 -2 -5 12 0 14 2 19 5 13 2 -7 2 -19 0 -25z m543 -95 c0
-43 -5 -41 -13 5 -4 18 -2 32 3 32 6 0 10 -16 10 -37z m-463 -120 c-2 -16 -4
-5 -4 22 0 28 2 40 4 28 2 -13 2 -35 0 -50z m505 -125 c-7 -7 -12 -8 -12 -2 0
14 12 26 19 19 2 -3 -1 -11 -7 -17z m-552 -60 c0 -64 -5 -60 -13 10 -4 32 -2
50 3 47 6 -4 10 -29 10 -57z m480 -4 c0 -8 -4 -14 -10 -14 -5 0 -10 9 -10 21
0 11 5 17 10 14 6 -3 10 -13 10 -21z m100 -61 c-1 -87 -1 -88 -16 -54 -10 25
-12 42 -5 61 5 16 5 33 0 41 -13 21 -11 39 6 39 12 0 15 -16 15 -87z m-64 28
c0 -23 4 -46 10 -49 11 -8 13 -82 2 -75 -5 2 -8 11 -8 18 0 18 -32 88 -44 96
-4 4 -3 10 3 13 6 4 11 16 11 27 0 12 5 19 13 17 7 -3 12 -23 13 -47z m187
-30 c2 -10 1 -25 -4 -32 -5 -8 -9 -9 -9 -4 0 6 -3 20 -6 33 -4 12 -2 22 4 22
5 0 12 -9 15 -19z m-706 -43 c-2 -13 -4 -5 -4 17 -1 22 1 32 4 23 2 -10 2 -28
0 -40z m672 35 c0 -10 -4 -27 -9 -38 -7 -18 -8 -18 -15 7 -7 28 -1 48 16 48 5
0 9 -8 8 -17z m-648 -228 c5 -71 10 -143 11 -160 0 -16 3 -32 7 -35 4 -3 5
-102 1 -220 -7 -241 -9 -237 -14 40 -2 107 -6 213 -9 235 -7 50 -17 317 -11
290 2 -11 9 -78 15 -150z m639 130 c0 -8 -4 -15 -10 -15 -5 0 -7 7 -4 15 4 8
8 15 10 15 2 0 4 -7 4 -15z m-31 -42 c-7 -10 -15 -20 -16 -22 -2 -2 -3 5 -3
17 0 14 6 22 16 22 14 0 15 -3 3 -17z m-50 -52 c14 -14 16 -22 8 -30 -18 -18
-24 -13 -29 19 -5 35 -4 36 21 11z m78 -1133 c-3 -8 -6 -5 -6 6 -1 11 2 17 5
13 3 -3 4 -12 1 -19z"/>
<path d="M2187 4421 c-4 -17 -3 -21 5 -13 5 5 8 16 6 23 -3 8 -7 3 -11 -10z"/>
<path d="M2185 4280 c-3 -5 -1 -10 4 -10 6 0 11 5 11 10 0 6 -2 10 -4 10 -3 0
-8 -4 -11 -10z"/>
<path d="M3112 4268 c2 -13 11 -24 23 -27 37 -7 59 -54 30 -65 -12 -4 -14 0
-9 22 5 18 3 24 -4 17 -15 -15 -27 -59 -14 -51 6 4 18 -6 26 -21 14 -26 15
-27 16 -5 0 12 -1 24 -2 25 -2 2 2 10 9 18 29 35 -4 110 -43 95 -8 -3 -14 -1
-14 4 0 6 -5 10 -11 10 -6 0 -9 -10 -7 -22z"/>
<path d="M3121 4204 c0 -11 3 -14 6 -6 3 7 2 16 -1 19 -3 4 -6 -2 -5 -13z"/>
<path d="M2295 4079 c7 -11 35 -12 35 -1 0 4 -9 8 -20 9 -11 1 -18 -2 -15 -8z"/>
<path d="M2952 925 c0 -16 2 -22 5 -12 2 9 2 23 0 30 -3 6 -5 -1 -5 -18z"/>
<path d="M2400 725 c0 -9 5 -15 11 -13 6 2 11 8 11 13 0 5 -5 11 -11 13 -6 2
-11 -4 -11 -13z"/>
<path d="M3230 663 c1 -5 7 -46 14 -93 12 -71 14 -77 15 -39 1 63 -10 139 -20
139 -5 0 -9 -3 -9 -7z"/>
<path d="M2136 624 c-8 -22 -7 -34 3 -34 5 0 9 11 9 25 0 29 -3 31 -12 9z"/>
<path d="M3254 345 c1 -71 -3 -134 -9 -141 -6 -8 -36 -15 -70 -17 l-60 -3 70
-2 c80 -2 219 22 252 43 12 8 37 15 55 15 l33 1 -24 19 c-13 11 -34 22 -47 25
-85 18 -83 15 -29 35 90 32 99 37 88 43 -6 4 -40 10 -77 13 -51 5 -69 3 -81
-9 -8 -9 -15 -20 -15 -26 0 -6 -13 -11 -29 -11 -16 0 -32 -6 -34 -12 -3 -7 -6
16 -7 52 -1 36 -5 74 -9 84 -4 11 -7 -38 -7 -109z"/>
<path d="M3618 373 c12 -2 32 -2 45 0 12 2 2 4 -23 4 -25 0 -35 -2 -22 -4z"/>
<path d="M3501 320 c14 -4 43 -4 65 0 35 7 32 8 -26 8 -46 0 -58 -2 -39 -8z"/>
</g>
</svg>
